<!-- Generated by IcoMoon.io -->
<svg version="1.1" xmlns="http://www.w3.org/2000/svg" width="19" height="16" viewBox="0 0 19 16">
<title>airplane-reverse</title>
<path d="M3.092 6.609c0.145 0 0.633 0.004 0.77 0.013l2.775 0.074c0.030 0 0.060-0.013 0.073-0.039l4.161-6.335c0.124-0.2 0.346-0.322 0.577-0.322h1.013c0.239 0 0.321 0.243 0.235 0.47l-2.142 6.209c-0.021 0.057 0.017 0.117 0.077 0.117l5.234 0.078c0.111 0.004 0.214-0.048 0.282-0.135l1.582-1.957c0.128-0.17 0.329-0.265 0.539-0.265h0.718c0.12 0 0.201 0.117 0.163 0.23l-0.851 2.987c-0.064 0.165-0.064 0.352 0 0.517l0.851 2.987c0.038 0.113-0.043 0.23-0.163 0.23h-0.714c-0.21 0-0.411-0.1-0.539-0.265l-1.612-1.987c-0.068-0.087-0.175-0.139-0.282-0.135l-5.204 0.117c-0.060 0.004-0.098 0.061-0.077 0.117l2.142 6.213c0.086 0.226 0.004 0.47-0.235 0.47h-1.013c-0.235 0-0.453-0.122-0.577-0.322l-4.165-6.33c-0.017-0.026-0.043-0.039-0.073-0.039l-2.775 0.074c-0.141 0.009-0.624 0.013-0.77 0.013-1.894 0-3.092-0.622-3.092-1.391s1.193-1.396 3.092-1.396z"></path>
</svg>
