<!-- Generated by IcoMoon.io -->
<svg version="1.1" xmlns="http://www.w3.org/2000/svg" width="16" height="16" viewBox="0 0 16 16">
<title>airplane</title>
<path d="M13.424 6.841c-0.121 0-0.527 0.004-0.641 0.011l-2.313 0.062c-0.025 0-0.050-0.011-0.061-0.033l-3.467-5.279c-0.103-0.167-0.289-0.268-0.481-0.268h-0.845c-0.2 0-0.267 0.203-0.196 0.391l1.785 5.174c0.018 0.047-0.014 0.098-0.064 0.098l-4.362 0.065c-0.093 0.004-0.178-0.040-0.235-0.112l-1.318-1.63c-0.107-0.141-0.274-0.221-0.449-0.221h-0.599c-0.1 0-0.167 0.098-0.135 0.192l0.709 2.489c0.053 0.138 0.053 0.293 0 0.431l-0.709 2.489c-0.032 0.094 0.036 0.192 0.135 0.192h0.595c0.175 0 0.342-0.083 0.449-0.221l1.343-1.656c0.057-0.072 0.146-0.116 0.235-0.112l4.337 0.098c0.050 0.004 0.082 0.051 0.064 0.098l-1.785 5.178c-0.071 0.188-0.004 0.391 0.196 0.391h0.845c0.196 0 0.378-0.101 0.481-0.268l3.471-5.275c0.014-0.022 0.036-0.033 0.061-0.033l2.313 0.062c0.118 0.007 0.52 0.011 0.641 0.011 1.579 0 2.576-0.518 2.576-1.159s-0.994-1.163-2.576-1.163z"></path>
</svg>
