<!-- Generated by IcoMoon.io -->
<svg version="1.1" xmlns="http://www.w3.org/2000/svg" width="16" height="16" viewBox="0 0 16 16">
<title>close-circle-outline</title>
<path d="M8 1.615c1.704 0 3.308 0.665 4.515 1.869 1.204 1.208 1.869 2.812 1.869 4.515s-0.665 3.308-1.869 4.515c-1.208 1.204-2.812 1.869-4.515 1.869s-3.308-0.665-4.515-1.869c-1.204-1.208-1.869-2.812-1.869-4.515s0.665-3.308 1.869-4.515c1.208-1.204 2.812-1.869 4.515-1.869zM8 0c-4.419 0-8 3.581-8 8s3.581 8 8 8c4.419 0 8-3.581 8-8s-3.581-8-8-8z"></path>
<path d="M12 10.881l-1.119 1.119-2.881-2.881-2.881 2.881-1.119-1.119 2.881-2.881-2.881-2.881 1.119-1.119 2.881 2.881 2.881-2.881 1.119 1.119-2.881 2.881z"></path>
</svg>
