<!-- Generated by IcoMoon.io -->
<svg version="1.1" xmlns="http://www.w3.org/2000/svg" width="16" height="16" viewBox="0 0 16 16">
<title>globe</title>
<path d="M8 0c-4.42 0-8 3.58-8 8s3.58 8 8 8 8-3.58 8-8-3.58-8-8-8zM8 2c0.66 0 1.28 0.18 1.88 0.38-0.42 0.4-0.9 0.76-0.82 1.12s1.38 0.26 1.38 1c0 0.54-0.84 0.7-0.26 1.32 0.7 0.7-1.28 1.96-1.32 2.88-0.060 1.66 1.68 1.94 3.060 1.94 0.84 0 1.060 0.4 1 0.88-1.080 1.54-2.92 2.5-4.94 2.5-0.76 0-1.46-0.18-2.12-0.44 0.44-0.88-0.56-2.62-1.5-3.18-0.46-0.46-1.44-0.28-2-0.5-0.18-0.54-0.36-1.080-0.38-1.68 0.060-0.1 0.16-0.18 0.32-0.18 0.38 0 0.9 0.76 1.18 0.68 0.36-0.080-1.48-2.62-0.62-3.12 0.4-0.24 1.2 0.78 0.94-0.32-0.24-1.020 0.72-0.56 1.32-0.82 0.52-0.22 0.9-0.82 0.26-1.18-0.12-0.060-0.26-0.2-0.44-0.38 0.9-0.54 1.94-0.88 3.060-0.88zM12.62 4.18c0.36 0.44 0.64 0.92 0.88 1.44 0 0.020 0 0.040 0 0.060-0.080 0.14-0.22 0.22-0.44 0.44-0.56 0.56-0.64-0.42-0.88-0.62-0.26-0.24-1.2 0.040-1.32-0.26-0.14-0.36 1-0.84 1.76-1.060z"></path>
</svg>
