<!-- Generated by IcoMoon.io -->
<svg version="1.1" xmlns="http://www.w3.org/2000/svg" width="16" height="16" viewBox="0 0 16 16">
<title>heart-empty</title>
<path d="M11.6 0.667c-1.4 0-2.719 0.638-3.6 1.677-0.881-1.039-2.2-1.677-3.6-1.677-2.481 0-4.4 1.917-4.4 4.396 0 3.036 2.719 5.473 6.838 9.232l1.162 1.039 1.162-1.039c4.119-3.758 6.838-6.195 6.838-9.232 0-2.479-1.919-4.396-4.4-4.396zM8.492 13.244l-0.162 0.149-0.331 0.298-0.331-0.298-0.162-0.149c-1.938-1.768-3.615-3.296-4.719-4.66-1.077-1.325-1.554-2.41-1.554-3.522 0-0.875 0.323-1.677 0.912-2.265 0.585-0.588 1.385-0.909 2.254-0.909 1.004 0 2 0.466 2.658 1.241l0.942 1.111 0.942-1.111c0.658-0.779 1.654-1.241 2.658-1.241 0.869 0 1.669 0.321 2.258 0.909s0.912 1.394 0.912 2.265c0 1.108-0.481 2.196-1.554 3.522-1.108 1.364-2.781 2.891-4.723 4.66z"></path>
</svg>
