<!-- Generated by IcoMoon.io -->
<svg version="1.1" xmlns="http://www.w3.org/2000/svg" width="20" height="16" viewBox="0 0 20 16">
<title>people</title>
<path d="M13.538 0c-1.255 0-2.338 0.649-3.003 1.632 1.108 1.001 1.772 2.374 1.772 3.95 0 0.538-0.074 1.020-0.222 1.502 0.468 0.204 0.935 0.352 1.452 0.352 2.043 0 3.692-1.669 3.692-3.709s-1.649-3.709-3.692-3.709v-0.019zM6.154 1.854c-2.043 0-3.692 1.669-3.692 3.709s1.649 3.709 3.692 3.709c2.043 0 3.692-1.669 3.692-3.709s-1.649-3.709-3.692-3.709zM17.846 7.714c-1.058 0.946-2.511 1.521-4.16 1.558 0.665 0.705 1.083 1.558 1.083 2.485v1.224h4.923v-3.078c0-0.964-0.763-1.799-1.846-2.207v0.019zM1.846 9.569c-1.083 0.408-1.846 1.242-1.846 2.207v3.078h12.308v-3.078c0-0.964-0.763-1.799-1.846-2.207-1.108 0.983-2.609 1.558-4.308 1.558s-3.2-0.593-4.308-1.558z"></path>
</svg>
