<!-- Generated by IcoMoon.io -->
<svg version="1.1" xmlns="http://www.w3.org/2000/svg" width="16" height="16" viewBox="0 0 16 16">
<title>log-in</title>
<path d="M8 0c-1.65 0-3.238 0.5-4.585 1.442-1.315 0.923-2.315 2.2-2.888 3.696l-0.142 0.4h1.758l0.073-0.192c0.315-0.685 0.746-1.304 1.288-1.846 1.2-1.2 2.796-1.862 4.496-1.862s3.296 0.662 4.496 1.862c1.2 1.2 1.862 2.796 1.862 4.496 0 1.696-0.662 3.296-1.862 4.496s-2.796 1.862-4.496 1.862c-1.696 0-3.292-0.662-4.496-1.862-0.538-0.538-0.973-1.158-1.288-1.842l-0.073-0.192h-1.758l0.138 0.4c0.573 1.496 1.573 2.773 2.888 3.696 1.35 0.95 2.935 1.446 4.588 1.446 4.412 0 8-3.588 8-8s-3.588-8-8-8z"></path>
<path d="M0 8.823h7.296l-1.677 1.719 1.15 1.15 3.692-3.692-3.692-3.692-1.192 1.15 1.719 1.719h-7.296v1.646z"></path>
</svg>
