<!-- Generated by IcoMoon.io -->
<svg version="1.1" xmlns="http://www.w3.org/2000/svg" width="16" height="16" viewBox="0 0 16 16">
<title>settings</title>
<path d="M14.047 8.8c0.041-0.24 0.041-0.52 0.041-0.8s-0.041-0.52-0.041-0.8l1.71-1.32c0.163-0.12 0.204-0.32 0.082-0.52l-1.629-2.76c-0.082-0.16-0.326-0.24-0.489-0.16l-2.036 0.8c-0.407-0.32-0.895-0.6-1.384-0.8l-0.285-2.12c-0.041-0.16-0.204-0.32-0.407-0.32h-3.257c-0.204 0-0.367 0.16-0.407 0.32l-0.326 2.12c-0.489 0.2-0.936 0.48-1.385 0.8l-2.036-0.8c-0.204-0.080-0.407 0-0.489 0.16l-1.629 2.76c-0.081 0.16-0.041 0.4 0.082 0.52l1.751 1.32c0 0.28-0.041 0.52-0.041 0.8s0.041 0.52 0.041 0.8l-1.71 1.32c-0.163 0.12-0.204 0.32-0.082 0.52l1.629 2.76c0.082 0.16 0.326 0.24 0.489 0.16l2.036-0.8c0.407 0.32 0.895 0.6 1.384 0.8l0.326 2.12c0.041 0.2 0.204 0.32 0.407 0.32h3.257c0.204 0 0.367-0.16 0.407-0.32l0.326-2.12c0.488-0.2 0.936-0.48 1.384-0.8l2.036 0.8c0.204 0.080 0.407 0 0.489-0.16l1.629-2.76c0.081-0.16 0.041-0.4-0.082-0.52l-1.791-1.32zM7.98 10.8c-1.588 0-2.85-1.24-2.85-2.8s1.262-2.8 2.85-2.8c1.588 0 2.85 1.24 2.85 2.8s-1.262 2.8-2.85 2.8z"></path>
</svg>
